<svg width="160" height="34" viewBox="0 0 160 34" fill="none" xmlns="http://www.w3.org/2000/svg">
<g clip-path="url(#clip0)">
<path d="M11.1945 28.5118L11.6015 28.4619C14.8882 27.8092 17.264 26.7394 18.8826 25.4009C20.2988 24.2296 21.159 22.8297 21.587 21.2709C22.0114 19.7495 21.9964 18.1438 21.7065 16.4902C21.3283 14.3933 20.487 12.2662 19.4135 10.2278C19.3968 10.2072 19.3802 10.1866 19.4004 10.1698C17.7122 6.95307 15.5324 4.00514 13.9316 2.02424L13.8982 1.98297L13.8482 1.92107C13.8315 1.90043 13.8148 1.8798 13.7946 1.89653C13.7779 1.8759 13.7613 1.85526 13.741 1.872C13.7327 1.86168 13.7235 1.8607 13.7142 1.85973C13.705 1.85875 13.6958 1.85778 13.6874 1.84746C13.6791 1.83714 13.6699 1.83617 13.6607 1.83519C13.6514 1.83422 13.6422 1.83324 13.6339 1.82292C13.6236 1.81017 13.6119 1.81169 13.5958 1.81379C13.5858 1.81509 13.5741 1.81661 13.56 1.81512L13.4862 1.80732C13.465 1.80507 13.456 1.80412 13.4483 1.8069C13.4426 1.80895 13.4377 1.81304 13.4291 1.82015L13.3553 1.81234C13.3452 1.82071 13.3359 1.81973 13.3267 1.81876C13.3175 1.81778 13.3083 1.81681 13.2981 1.82517C13.288 1.83354 13.2788 1.83256 13.2696 1.83159C13.2603 1.83061 13.2511 1.82964 13.241 1.838C13.2208 1.85473 13.2208 1.85473 13.1839 1.85083C13.1737 1.8592 13.1595 1.86241 13.1452 1.86561C13.1309 1.86882 13.1166 1.87203 13.1065 1.88039L13.066 1.91386L13.0053 1.96406C11.0464 3.54972 8.31752 5.97867 6.07334 8.79855L4.98815 10.2124C3.28668 12.6179 2.0341 15.2029 1.84226 17.8057C1.67643 19.9395 2.23918 22.056 3.9007 23.9867C5.24183 25.5627 7.3786 27.0544 10.353 28.3124L10.7738 28.4121L11.1945 28.5118ZM20.0381 15.2193L12.1883 22.2964L12.6934 16.9904L18.6271 11.6355C19.205 12.81 19.6852 14.0308 20.0381 15.2193ZM13.3131 3.43081C14.7436 5.24273 16.5398 7.71607 17.9993 10.3991L12.8819 15.01L13.4545 8.99394C13.4901 8.62027 13.2233 8.29012 12.8542 8.2511C12.4852 8.21208 12.1615 8.4798 12.1259 8.85346L11.5532 14.8695L7.40689 9.27923C9.34293 6.95517 11.5696 4.90715 13.3131 3.43081ZM6.05158 10.9853C6.22055 10.7767 6.38952 10.5681 6.54181 10.3389L11.3481 16.8293L10.8597 22.156L4.48351 13.5559C4.93794 12.6981 5.44952 11.8275 6.05158 10.9853ZM4.89562 23.1295C3.50447 21.4916 3.02043 19.7231 3.15424 17.9256C3.23005 16.9334 3.47371 15.9401 3.865 14.9624L10.6509 24.1531L10.3877 26.9183C7.84912 25.7818 6.04977 24.5159 4.89562 23.1295ZM11.7331 27.0794L11.9963 24.3142L20.3792 16.7273C20.3792 16.7273 20.3959 16.748 20.3756 16.7647C20.65 18.1902 20.6827 19.609 20.3165 20.9101C19.9706 22.1945 19.2258 23.3613 18.0488 24.3691C16.6528 25.5237 14.6067 26.4585 11.7331 27.0794Z" fill="#97D64A"/>
<path d="M11.1945 28.5118L11.6015 28.4619C14.8882 27.8092 17.264 26.7394 18.8826 25.4009C20.2988 24.2296 21.159 22.8297 21.587 21.2709C22.0114 19.7495 21.9964 18.1438 21.7065 16.4902C21.3283 14.3933 20.487 12.2662 19.4135 10.2278C19.3968 10.2072 19.3802 10.1866 19.4004 10.1698C17.7122 6.95307 15.5324 4.00514 13.9316 2.02424L13.8982 1.98297L13.8482 1.92107C13.8315 1.90043 13.8148 1.8798 13.7946 1.89653C13.7779 1.8759 13.7613 1.85526 13.741 1.872C13.7327 1.86168 13.7235 1.8607 13.7142 1.85973C13.705 1.85875 13.6958 1.85778 13.6874 1.84746C13.6791 1.83714 13.6699 1.83617 13.6607 1.83519C13.6514 1.83422 13.6422 1.83324 13.6339 1.82292C13.6236 1.81017 13.6119 1.81169 13.5958 1.81379C13.5858 1.81509 13.5741 1.81661 13.56 1.81512L13.4862 1.80732C13.465 1.80507 13.456 1.80412 13.4483 1.8069C13.4426 1.80895 13.4377 1.81304 13.4291 1.82015L13.3553 1.81234C13.3452 1.82071 13.3359 1.81973 13.3267 1.81876C13.3175 1.81778 13.3083 1.81681 13.2981 1.82517C13.288 1.83354 13.2788 1.83256 13.2696 1.83159C13.2603 1.83061 13.2511 1.82964 13.241 1.838C13.2208 1.85473 13.2208 1.85473 13.1839 1.85083C13.1737 1.8592 13.1595 1.86241 13.1452 1.86561C13.1309 1.86882 13.1166 1.87203 13.1065 1.88039L13.066 1.91386L13.0053 1.96406C11.0464 3.54972 8.31752 5.97867 6.07334 8.79855L4.98815 10.2124C3.28668 12.6179 2.0341 15.2029 1.84226 17.8057C1.67643 19.9395 2.23918 22.056 3.9007 23.9867C5.24183 25.5627 7.3786 27.0544 10.353 28.3124L10.7738 28.4121L11.1945 28.5118ZM20.0381 15.2193L12.1883 22.2964L12.6934 16.9904L18.6271 11.6355C19.205 12.81 19.6852 14.0308 20.0381 15.2193ZM13.3131 3.43081C14.7436 5.24273 16.5398 7.71607 17.9993 10.3991L12.8819 15.01L13.4545 8.99394C13.4901 8.62027 13.2233 8.29012 12.8542 8.2511C12.4852 8.21208 12.1615 8.4798 12.1259 8.85346L11.5532 14.8695L7.40689 9.27923C9.34293 6.95517 11.5696 4.90715 13.3131 3.43081ZM6.05158 10.9853C6.22055 10.7767 6.38952 10.5681 6.54181 10.3389L11.3481 16.8293L10.8597 22.156L4.48351 13.5559C4.93794 12.6981 5.44952 11.8275 6.05158 10.9853ZM4.89562 23.1295C3.50447 21.4916 3.02043 19.7231 3.15424 17.9256C3.23005 16.9334 3.47371 15.9401 3.865 14.9624L10.6509 24.1531L10.3877 26.9183C7.84912 25.7818 6.04977 24.5159 4.89562 23.1295ZM11.7331 27.0794L11.9963 24.3142L20.3792 16.7273C20.3792 16.7273 20.3959 16.748 20.3756 16.7647C20.65 18.1902 20.6827 19.609 20.3165 20.9101C19.9706 22.1945 19.2258 23.3613 18.0488 24.3691C16.6528 25.5237 14.6067 26.4585 11.7331 27.0794Z" stroke="#97D64A"/>
<path d="M14.673 11.397L9.09278 14.8222L7.29266 20.6547L8.54141 25.947L11.8498 29.0218L17.9203 30.4567L23.1163 27.9007L26.7058 22.354L29.9629 12.6953L27.8016 12.0457L21.714 10.9554L14.673 11.397Z" fill="#E9FBD4"/>
<path d="M8.27469 26.949L8.573 27.2343C11.1736 29.38 13.5101 30.5521 15.5676 30.9641C17.3678 31.3247 18.9871 31.1073 20.4512 30.4527C21.8846 29.8189 23.1012 28.7898 24.1786 27.516C25.5381 25.8926 26.6244 23.8894 27.4945 21.7618C27.4995 21.7357 27.5046 21.7096 27.5304 21.7148C28.9072 18.3616 29.7643 14.796 30.2532 12.294L30.2634 12.2419L30.2787 12.1637C30.2838 12.1377 30.2889 12.1116 30.2631 12.1065C30.2682 12.0804 30.2733 12.0543 30.2476 12.0492C30.2502 12.0362 30.245 12.0284 30.2398 12.0206C30.2347 12.0128 30.2295 12.0049 30.2321 11.9919C30.2346 11.9789 30.2295 11.9711 30.2243 11.9633C30.2192 11.9555 30.214 11.9477 30.2166 11.9346C30.2197 11.9185 30.2111 11.9104 30.1992 11.8992C30.1918 11.8923 30.1832 11.8841 30.1753 11.8722L30.134 11.8098C30.1222 11.7918 30.1171 11.7842 30.1101 11.78C30.1049 11.7769 30.0986 11.7756 30.0877 11.7734L30.0465 11.711C30.0336 11.7084 30.0284 11.7006 30.0233 11.6928C30.0181 11.685 30.013 11.6772 30.0001 11.6746C29.9873 11.6721 29.9821 11.6643 29.9769 11.6565C29.9718 11.6487 29.9666 11.6409 29.9538 11.6383C29.9429 11.6361 29.9366 11.6348 29.9314 11.6317C29.9243 11.6275 29.9193 11.6199 29.9074 11.6019C29.8946 11.5993 29.883 11.5903 29.8714 11.5812C29.8598 11.5721 29.8482 11.563 29.8354 11.5604L29.7839 11.5501L29.7068 11.5347C27.2429 11.0141 23.6426 10.4285 20.0538 10.4681L18.28 10.5191C15.3548 10.7186 12.5795 11.3815 10.4691 12.8816C8.73348 14.1048 7.4771 15.8843 7.06534 18.4017C6.71954 20.4448 6.94702 23.054 7.88865 26.1674L8.08167 26.5582L8.27469 26.949ZM24.0821 25.4114L13.6568 23.784L18.032 20.8146L25.9165 22.0415C25.3891 23.2358 24.764 24.3835 24.0821 25.4114ZM28.7835 12.7038C28.3147 14.966 27.5747 17.9322 26.4591 20.769L19.6649 19.7063L24.6255 16.3396C24.9336 16.1305 25.0151 15.7135 24.8088 15.4014C24.6026 15.0892 24.1911 15.0068 23.883 15.2159L18.9224 18.5826L20.5396 11.8111C23.5527 11.8458 26.5409 12.2818 28.7835 12.7038ZM18.3699 11.837C18.6373 11.8364 18.9046 11.8358 19.1771 11.8091L17.2945 19.6649L12.9143 22.6603L15.4039 12.245C16.3496 12.0553 17.3417 11.9019 18.3699 11.837ZM8.35634 18.6331C8.71742 16.5118 9.75838 15.0141 11.2167 13.9792C12.0229 13.4094 12.9373 12.9697 13.9342 12.6548L11.2556 23.7635L8.97558 25.3109C8.21984 22.6139 8.03575 20.4105 8.35634 18.6331ZM9.713 26.4606L11.993 24.9132L23.1486 26.6327C23.1486 26.6327 23.1435 26.6588 23.1178 26.6536C22.2046 27.7707 21.142 28.6953 19.9142 29.2348C18.7121 29.7794 17.3447 29.9388 15.8222 29.661C14.0476 29.3056 12.0251 28.3048 9.713 26.4606Z" fill="#97D64A"/>
<path d="M8.27469 26.949L8.573 27.2343C11.1736 29.38 13.5101 30.5521 15.5676 30.9641C17.3678 31.3247 18.9871 31.1073 20.4512 30.4527C21.8846 29.8189 23.1012 28.7898 24.1786 27.516C25.5381 25.8926 26.6244 23.8894 27.4945 21.7618C27.4995 21.7357 27.5046 21.7096 27.5304 21.7148C28.9072 18.3616 29.7643 14.796 30.2532 12.294L30.2634 12.2419L30.2787 12.1637C30.2838 12.1377 30.2889 12.1116 30.2631 12.1065C30.2682 12.0804 30.2733 12.0543 30.2476 12.0492C30.2502 12.0362 30.245 12.0284 30.2398 12.0206C30.2347 12.0128 30.2295 12.0049 30.2321 11.9919C30.2346 11.9789 30.2295 11.9711 30.2243 11.9633C30.2192 11.9555 30.214 11.9477 30.2166 11.9346C30.2197 11.9185 30.2111 11.9104 30.1992 11.8992C30.1918 11.8923 30.1832 11.8841 30.1753 11.8722L30.134 11.8098C30.1222 11.7918 30.1171 11.7842 30.1101 11.78C30.1049 11.7769 30.0986 11.7756 30.0877 11.7734L30.0465 11.711C30.0336 11.7084 30.0284 11.7006 30.0233 11.6928C30.0181 11.685 30.013 11.6772 30.0001 11.6746C29.9873 11.6721 29.9821 11.6643 29.9769 11.6565C29.9718 11.6487 29.9666 11.6409 29.9538 11.6383C29.9429 11.6361 29.9366 11.6348 29.9314 11.6317C29.9243 11.6275 29.9193 11.6199 29.9074 11.6019C29.8946 11.5993 29.883 11.5903 29.8714 11.5812C29.8598 11.5721 29.8482 11.563 29.8354 11.5604L29.7839 11.5501L29.7068 11.5347C27.2429 11.0141 23.6426 10.4285 20.0538 10.4681L18.28 10.5191C15.3548 10.7186 12.5795 11.3815 10.4691 12.8816C8.73348 14.1048 7.4771 15.8843 7.06534 18.4017C6.71954 20.4448 6.94702 23.054 7.88865 26.1674L8.08167 26.5582L8.27469 26.949ZM24.0821 25.4114L13.6568 23.784L18.032 20.8146L25.9165 22.0415C25.3891 23.2358 24.764 24.3835 24.0821 25.4114ZM28.7835 12.7038C28.3147 14.966 27.5747 17.9322 26.4591 20.769L19.6649 19.7063L24.6255 16.3396C24.9336 16.1305 25.0151 15.7135 24.8088 15.4014C24.6026 15.0892 24.1911 15.0068 23.883 15.2159L18.9224 18.5826L20.5396 11.8111C23.5527 11.8458 26.5409 12.2818 28.7835 12.7038ZM18.3699 11.837C18.6373 11.8364 18.9046 11.8358 19.1771 11.8091L17.2945 19.6649L12.9143 22.6603L15.4039 12.245C16.3496 12.0553 17.3417 11.9019 18.3699 11.837ZM8.35634 18.6331C8.71742 16.5118 9.75838 15.0141 11.2167 13.9792C12.0229 13.4094 12.9373 12.9697 13.9342 12.6548L11.2556 23.7635L8.97558 25.3109C8.21984 22.6139 8.03575 20.4105 8.35634 18.6331ZM9.713 26.4606L11.993 24.9132L23.1486 26.6327C23.1486 26.6327 23.1435 26.6588 23.1178 26.6536C22.2046 27.7707 21.142 28.6953 19.9142 29.2348C18.7121 29.7794 17.3447 29.9388 15.8222 29.661C14.0476 29.3056 12.0251 28.3048 9.713 26.4606Z" stroke="#97D64A"/>
</g>
<path d="M43.3032 7.412H39.7192V5.3H49.4792V7.412H45.8952V16.5H43.3032V7.412ZM61.1458 5.3V16.5H58.5538V11.908H53.4658V16.5H50.8738V5.3H53.4658V9.716H58.5538V5.3H61.1458ZM72.4677 14.42V16.5H63.7957V5.3H72.2597V7.38H66.3717V9.812H71.5717V11.828H66.3717V14.42H72.4677ZM86.6293 10.724H88.9973V15.268C88.3893 15.7267 87.6853 16.0787 86.8853 16.324C86.0853 16.5693 85.2799 16.692 84.4693 16.692C83.3066 16.692 82.2613 16.4467 81.3333 15.956C80.4053 15.4547 79.6746 14.7667 79.1413 13.892C78.6186 13.0067 78.3573 12.0093 78.3573 10.9C78.3573 9.79067 78.6186 8.79867 79.1413 7.924C79.6746 7.03867 80.4106 6.35067 81.3493 5.86C82.2879 5.35867 83.3439 5.108 84.5173 5.108C85.4986 5.108 86.3893 5.27333 87.1893 5.604C87.9893 5.93467 88.6613 6.41467 89.2053 7.044L87.5413 8.58C86.7413 7.73733 85.7759 7.316 84.6453 7.316C83.9306 7.316 83.2959 7.46533 82.7413 7.764C82.1866 8.06267 81.7546 8.484 81.4453 9.028C81.1359 9.572 80.9813 10.196 80.9813 10.9C80.9813 11.5933 81.1359 12.212 81.4453 12.756C81.7546 13.3 82.1813 13.7267 82.7253 14.036C83.2799 14.3347 83.9093 14.484 84.6133 14.484C85.3599 14.484 86.0319 14.324 86.6293 14.004V10.724ZM98.541 16.5L96.381 13.38H96.253H93.997V16.5H91.405V5.3H96.253C97.245 5.3 98.1037 5.46533 98.829 5.796C99.565 6.12667 100.13 6.596 100.525 7.204C100.92 7.812 101.117 8.532 101.117 9.364C101.117 10.196 100.914 10.916 100.509 11.524C100.114 12.1213 99.549 12.58 98.813 12.9L101.325 16.5H98.541ZM98.493 9.364C98.493 8.73467 98.2904 8.25467 97.885 7.924C97.4797 7.58267 96.8877 7.412 96.109 7.412H93.997V11.316H96.109C96.8877 11.316 97.4797 11.1453 97.885 10.804C98.2904 10.4627 98.493 9.98267 98.493 9.364ZM103.171 5.3H105.763V16.5H103.171V5.3ZM108.421 5.3H111.013V14.388H116.629V16.5H108.421V5.3ZM118.077 5.3H120.669V14.388H126.285V16.5H118.077V5.3ZM136.405 14.42V16.5H127.733V5.3H136.197V7.38H130.309V9.812H135.509V11.828H130.309V14.42H136.405ZM145.604 16.5L143.444 13.38H143.316H141.06V16.5H138.468V5.3H143.316C144.308 5.3 145.166 5.46533 145.892 5.796C146.628 6.12667 147.193 6.596 147.588 7.204C147.982 7.812 148.18 8.532 148.18 9.364C148.18 10.196 147.977 10.916 147.572 11.524C147.177 12.1213 146.612 12.58 145.876 12.9L148.388 16.5H145.604ZM145.556 9.364C145.556 8.73467 145.353 8.25467 144.948 7.924C144.542 7.58267 143.95 7.412 143.172 7.412H141.06V11.316H143.172C143.95 11.316 144.542 11.1453 144.948 10.804C145.353 10.4627 145.556 9.98267 145.556 9.364ZM153.913 16.692C153.028 16.692 152.169 16.5747 151.337 16.34C150.516 16.0947 149.854 15.78 149.353 15.396L150.233 13.444C150.713 13.796 151.284 14.0787 151.945 14.292C152.606 14.5053 153.268 14.612 153.929 14.612C154.665 14.612 155.209 14.5053 155.561 14.292C155.913 14.068 156.089 13.7747 156.089 13.412C156.089 13.1453 155.982 12.9267 155.769 12.756C155.566 12.5747 155.3 12.4307 154.969 12.324C154.649 12.2173 154.212 12.1 153.657 11.972C152.804 11.7693 152.105 11.5667 151.561 11.364C151.017 11.1613 150.548 10.836 150.153 10.388C149.769 9.94 149.577 9.34267 149.577 8.596C149.577 7.94533 149.753 7.35867 150.105 6.836C150.457 6.30267 150.985 5.88133 151.689 5.572C152.404 5.26267 153.273 5.108 154.297 5.108C155.012 5.108 155.71 5.19333 156.393 5.364C157.076 5.53467 157.673 5.78 158.185 6.1L157.385 8.068C156.35 7.48133 155.316 7.188 154.281 7.188C153.556 7.188 153.017 7.30533 152.665 7.54C152.324 7.77467 152.153 8.084 152.153 8.468C152.153 8.852 152.35 9.14 152.745 9.332C153.15 9.51333 153.764 9.69467 154.585 9.876C155.438 10.0787 156.137 10.2813 156.681 10.484C157.225 10.6867 157.689 11.0067 158.073 11.444C158.468 11.8813 158.665 12.4733 158.665 13.22C158.665 13.86 158.484 14.4467 158.121 14.98C157.769 15.5027 157.236 15.9187 156.521 16.228C155.806 16.5373 154.937 16.692 153.913 16.692Z" fill="black"/>
<path d="M43.0512 24.14C42.0552 24.14 41.1192 24.452 40.4832 24.992L40.8672 25.628C41.3832 25.172 42.1512 24.884 42.9672 24.884C44.1432 24.884 44.7552 25.472 44.7552 26.552V26.936H42.7512C40.9392 26.936 40.3152 27.752 40.3152 28.724C40.3152 29.816 41.1912 30.56 42.6192 30.56C43.6632 30.56 44.4072 30.164 44.7912 29.516V30.5H45.6072V26.588C45.6072 24.956 44.6832 24.14 43.0512 24.14ZM42.7512 29.888C41.7432 29.888 41.1552 29.432 41.1552 28.7C41.1552 28.052 41.5512 27.572 42.7752 27.572H44.7552V28.604C44.4192 29.432 43.7112 29.888 42.7512 29.888ZM51.1373 24.14C50.0453 24.14 49.1933 24.584 48.7373 25.352V24.188H47.9213V30.5H48.7733V27.188C48.7733 25.748 49.6253 24.908 50.9813 24.908C52.1813 24.908 52.8773 25.592 52.8773 26.924V30.5H53.7293V26.84C53.7293 25.028 52.6733 24.14 51.1373 24.14ZM60.9738 21.596V25.388C60.4458 24.572 59.5818 24.14 58.5738 24.14C56.7738 24.14 55.4298 25.436 55.4298 27.344C55.4298 29.252 56.7738 30.56 58.5738 30.56C59.6178 30.56 60.4938 30.104 61.0098 29.252V30.5H61.8258V21.596H60.9738ZM58.6458 29.804C57.3018 29.804 56.2938 28.82 56.2938 27.344C56.2938 25.868 57.3018 24.884 58.6458 24.884C59.9778 24.884 60.9858 25.868 60.9858 27.344C60.9858 28.82 59.9778 29.804 58.6458 29.804ZM70.5552 24.14C69.4632 24.14 68.6112 24.584 68.1552 25.352V24.188H67.3392V30.5H68.1912V27.188C68.1912 25.748 69.0432 24.908 70.3992 24.908C71.5992 24.908 72.2952 25.592 72.2952 26.924V30.5H73.1472V26.84C73.1472 25.028 72.0912 24.14 70.5552 24.14ZM78.0638 30.56C79.9118 30.56 81.2678 29.216 81.2678 27.344C81.2678 25.472 79.9118 24.14 78.0638 24.14C76.2158 24.14 74.8478 25.472 74.8478 27.344C74.8478 29.216 76.2158 30.56 78.0638 30.56ZM78.0638 29.804C76.7198 29.804 75.7118 28.82 75.7118 27.344C75.7118 25.868 76.7198 24.884 78.0638 24.884C79.4078 24.884 80.4038 25.868 80.4038 27.344C80.4038 28.82 79.4078 29.804 78.0638 29.804ZM86.0312 29.504C85.7912 29.72 85.4432 29.828 85.0952 29.828C84.3872 29.828 84.0032 29.42 84.0032 28.676V24.908H85.9232V24.188H84.0032V22.808H83.1512V24.188H82.0232V24.908H83.1512V28.724C83.1512 29.888 83.8112 30.56 84.9992 30.56C85.4912 30.56 85.9952 30.416 86.3312 30.116L86.0312 29.504ZM93.6028 30.56C95.4508 30.56 96.8068 29.216 96.8068 27.344C96.8068 25.472 95.4508 24.14 93.6028 24.14C91.7548 24.14 90.3868 25.472 90.3868 27.344C90.3868 29.216 91.7548 30.56 93.6028 30.56ZM93.6028 29.804C92.2588 29.804 91.2508 28.82 91.2508 27.344C91.2508 25.868 92.2588 24.884 93.6028 24.884C94.9468 24.884 95.9428 25.868 95.9428 27.344C95.9428 28.82 94.9468 29.804 93.6028 29.804ZM101.762 24.14C100.67 24.14 99.8183 24.584 99.3623 25.352V24.188H98.5463V30.5H99.3983V27.188C99.3983 25.748 100.25 24.908 101.606 24.908C102.806 24.908 103.502 25.592 103.502 26.924V30.5H104.354V26.84C104.354 25.028 103.298 24.14 101.762 24.14ZM106.667 30.5H107.519V21.596H106.667V30.5ZM114.354 24.188L111.978 29.552L109.602 24.188H108.714L111.534 30.488L111.258 31.1C110.898 31.892 110.514 32.156 109.95 32.156C109.494 32.156 109.11 31.988 108.798 31.676L108.402 32.312C108.786 32.696 109.35 32.888 109.938 32.888C110.838 32.888 111.51 32.492 112.038 31.256L115.194 24.188H114.354Z" fill="black"/>
<defs>
<clipPath id="clip0">
<rect width="31.6552" height="34" fill="white"/>
</clipPath>
</defs>
</svg>
